<svg xmlns="http://www.w3.org/2000/svg" viewBox="0 0 100 100" fill="none">
  <defs>
    <filter id="shadow" x="-20%" y="-20%" width="140%" height="140%">
      <feDropShadow dx="3" dy="3" stdDeviation="1" flood-color="rgba(0,0,0,0.25)"/>
    </filter>
  </defs>
  <g filter="url(#shadow)">
    <!-- Cresta superior del casco -->
    <path d="M25 85 Q15 60 20 35 Q25 15 45 8 Q65 2 78 12 L72 18 Q60 10 45 15 Q30 22 27 40 Q24 58 32 80 Z" fill="#F188B7"/>
    
    <!-- Parte principal del casco formando la G -->
    <path d="M78 12 Q88 22 88 40 Q88 55 80 65 L80 75 L55 75 L55 62 L68 62 L68 50 Q70 35 60 28 Q48 20 38 30 Q30 40 32 55 Q34 70 48 78 Q60 85 75 80 L78 90 Q55 98 38 88 Q20 78 18 55 Q16 32 32 18 Q50 5 72 10 Z" fill="#F188B7"/>
    
    <!-- Extension inferior izquierda -->
    <path d="M32 80 Q28 88 30 95 L22 97 Q18 88 22 78 Z" fill="#F188B7"/>
  </g>
</svg>
