<svg xmlns="http://www.w3.org/2000/svg" viewBox="0 0 324 511" fill="none">
  <defs>
    <filter id="shadow" x="-20%" y="-20%" width="140%" height="140%">
      <feDropShadow dx="11" dy="9.4" stdDeviation="3.1" flood-color="rgba(0,0,0,0.25)"/>
    </filter>
  </defs>
  <g filter="url(#shadow)">
    <!-- Cresta del casco (parte superior curva) -->
    <path d="M45 380 C20 280, 30 150, 80 80 C120 30, 180 10, 240 25 C280 35, 300 60, 290 90 L270 85 C275 65, 260 50, 230 42 C180 30, 130 45, 100 90 C60 150, 55 260, 75 350 Z" fill="#F188B7"/>
    
    <!-- Parte frontal del casco (la G) -->
    <path d="M290 90 C310 120, 315 180, 300 250 L300 320 L230 320 L230 280 L260 280 L260 200 C265 160, 255 130, 230 115 C200 100, 160 105, 135 130 C110 160, 105 200, 110 250 C115 300, 135 340, 170 365 C200 385, 240 385, 275 370 L290 410 C245 435, 190 440, 140 415 C90 390, 55 340, 45 280 C35 210, 50 140, 90 95 C130 50, 190 35, 250 50 C280 58, 300 75, 290 90 Z" fill="#F188B7"/>
    
    <!-- Extensión inferior del casco -->
    <path d="M75 350 C70 400, 75 450, 90 490 L50 500 C30 450, 25 390, 35 330 Z" fill="#F188B7"/>
  </g>
</svg>
