<svg width="324" height="511" viewBox="0 324 511" fill="none" xmlns="http://www.w3.org/2000/svg">
<g filter="url(#shadow)">
<path d="M166.885 475.199C165.442 475.199 163.884 474.911 162.264 474.334C160.249 473.616 158.831 471.8 158.618 469.667C158.522 468.706 148.857 372.707 127.55 317.239C126.353 314.289 125.832 312.232 125.832 310.504C125.832 309.045 126.162 306.773 126.94 302.926C132.475 275.632 152.287 210.649 216.923 194.835C217.6 194.681 230.901 191.795 249.156 191.795C272.508 191.795 304.165 196.579 326.776 218.469C329.61 213.823 333.427 206.422 335.566 197.474C336.438 193.202 339.493 188.93 344.408 188.93C347.005 188.93 349.306 189.886 350.889 191.627C353.029 193.986 353.11 196.8 353.044 197.908C353.11 201.788 353.136 221.175 352.449 325.57C352.431 328.402 350.171 330.769 347.35 331.047C347.35 331.047 347.111 331.07 346.682 331.07C340.948 331.07 334.78 327.142 333.857 318.374C333.675 317.197 333.506 315.797 333.315 314.223C332.703 309.188 331.867 302.292 329.599 295.307C325.414 282.44 307.174 240.46 248.212 240.46C244.444 240.46 240.531 240.631 236.574 240.976C233.679 241.28 163.577 249.462 163.577 321.367C163.577 345.733 165.269 370.027 166.741 388.467C169.051 417.528 171.387 439.037 176.496 462.996C176.562 463.289 176.598 463.586 176.613 463.882C176.656 464.745 176.709 469.207 173.692 472.376C171.935 474.224 169.582 475.199 166.885 475.199Z" fill="#F188B7"/>
<path d="M175.276 533.102C172.811 533.102 169.329 531.845 167.638 528.313C165.154 523.135 168.202 518.02 172.57 515.507C200.476 495.608 244.298 472.267 283.93 466.225C313.593 461.705 324.52 451.61 328.889 424.675C329.219 422.607 336.799 373.963 312.341 369.212C310.444 368.841 307.513 368.288 304.019 367.629C292.211 365.398 274.659 362.077 267.445 360.356C267.353 360.597 267.258 360.836 267.155 361.059C264.605 366.735 261.853 378.45 259.195 389.779C257.601 396.557 255.955 403.57 254.331 409.323C253.788 411.25 252.251 412.735 250.308 413.199C249.985 413.276 249.128 413.455 248.004 413.455C245.333 413.455 242.925 412.456 241.232 410.642C239.323 408.596 238.477 405.804 238.715 402.338C238.722 402.214 238.736 402.09 238.75 401.964L248.534 330.687C248.871 328.23 250.8 326.301 253.254 325.964C255.708 325.611 258.09 326.96 259.08 329.235C259.083 329.24 260.555 332.486 263.58 335.592C266.291 338.381 269.356 340.161 272.681 340.883C284.649 343.48 352.419 355.833 353.1 355.957C355.958 356.478 357.924 359.123 357.603 362.01C357.544 362.531 351.81 413.952 351.007 428.902C350.995 431.804 350.952 485.732 362.388 510.285C363.314 512.179 363.776 515.308 362.362 518.62C360.922 521.983 356.99 523.515 353.949 523.515C352.103 523.515 350.462 522.965 349.199 521.917C342.334 516.004 322.32 502.403 283.173 502.403C226.566 502.403 188.774 525.088 178.536 532.038L178.378 532.144C177.463 532.768 176.386 533.102 175.276 533.102Z" fill="#F188B7"/>
<path d="M100.68 550.272C98.9775 550.272 97.3272 549.48 96.2729 548.157C95.0869 546.666 94.7406 544.644 95.2769 542.316C102.681 510.061 102.681 488.812 102.681 481.832C102.681 481.206 102.01 417.988 43.9644 294.365C35.3249 263.217 42.0091 222.105 52.4843 195.144C84.1443 106.829 157.287 59.5084 210.308 45.8C227.91 41.9568 246.187 40 264.558 40C285.047 40 300.481 42.3889 308.776 43.6715L309.113 43.7236C315.818 44.8269 315.518 47.0274 315.204 49.3627C315.172 49.6155 315.138 49.8531 315.115 50.0783C314.865 52.4994 302.493 153.738 302.367 154.761C302.357 154.827 301.031 163.922 295.666 163.922C295.006 163.922 294.29 163.793 293.527 163.537C287.174 161.275 264.005 153.874 234 153.874C206.137 153.874 166.001 160.529 133.023 192.215C90.5404 236.877 86.0046 278.029 86.0199 293.656C86.0276 297.586 86.1808 302.494 87.3255 305.553C88.9268 310.159 126.816 420.043 119.962 490.093C118.049 509.623 110.62 531.937 105.199 547.019C104.143 549.953 101.688 550.272 100.685 550.272C100.68 550.272 100.68 550.272 100.68 550.272Z" fill="#F188B7"/>
</g>
<defs>
<filter id="shadow" x="0" y="0" width="100%" height="100%">
<feDropShadow dx="11" dy="9.4" stdDeviation="3.1" flood-color="rgba(0,0,0,0.25)"/>
</filter>
</defs>
</svg>
